<?xml version="1.0" standalone="no"?>
<!DOCTYPE svg PUBLIC "-//W3C//DTD SVG 20010904//EN"
 "http://www.w3.org/TR/2001/REC-SVG-20010904/DTD/svg10.dtd">
<svg version="1.0" xmlns="http://www.w3.org/2000/svg"
 width="2799.000000pt" height="2799.000000pt" viewBox="0 0 2799.000000 2799.000000"
 preserveAspectRatio="xMidYMid meet">
<metadata>
Created by potrace 1.14, written by Peter Selinger 2001-2017
</metadata>
<g transform="translate(0.000000,2799.000000) scale(0.100000,-0.100000)"
fill="#000000" stroke="none">
<path d="M3750 23893 c-19 -3 -38 -7 -42 -11 -6 -6 -26 -94 -42 -187 -3 -16
-8 -39 -10 -50 -2 -11 -7 -40 -10 -65 -3 -25 -8 -54 -10 -65 -2 -11 -7 -45
-11 -75 -3 -30 -8 -66 -10 -80 -14 -106 -22 -181 -29 -287 -3 -46 -9 -122 -12
-170 -8 -105 -8 -587 0 -693 3 -41 8 -118 11 -170 4 -52 8 -108 10 -125 12
-134 17 -183 20 -205 2 -14 6 -45 9 -70 3 -25 8 -61 10 -80 11 -89 38 -264 52
-340 8 -47 18 -101 21 -120 3 -19 16 -87 30 -150 13 -63 27 -126 29 -140 3
-14 18 -81 35 -150 17 -69 32 -134 35 -146 4 -22 109 -399 124 -449 89 -285
193 -592 262 -770 37 -93 163 -406 182 -450 209 -476 475 -1003 499 -988 6 4
32 30 57 57 58 66 300 308 365 366 800 718 1980 1291 3335 1619 215 52 419 95
508 107 31 4 52 12 52 19 0 14 -38 104 -112 265 -44 95 -248 503 -258 515 -4
6 -23 37 -41 70 -126 234 -448 720 -581 880 -9 11 -50 61 -91 112 -378 469
-847 889 -1352 1212 -406 259 -881 475 -1340 609 -337 98 -566 142 -1025 197
-57 7 -623 13 -670 8z"/>
<path d="M23388 23895 c-2 -1 -46 -5 -98 -9 -393 -26 -897 -131 -1300 -271
-331 -115 -784 -328 -1020 -479 -19 -13 -73 -47 -120 -77 -183 -116 -468 -329
-615 -459 -139 -124 -187 -169 -330 -314 -400 -405 -735 -854 -1050 -1411 -89
-157 -345 -669 -345 -690 0 -2 -16 -38 -35 -80 -37 -79 -37 -95 -4 -95 33 0
365 -68 538 -111 803 -197 1535 -473 2186 -824 253 -136 584 -347 790 -504 73
-55 254 -200 276 -221 8 -8 53 -49 99 -90 98 -88 223 -212 328 -327 41 -45 78
-80 83 -77 4 2 14 17 22 32 8 15 38 70 66 122 43 77 245 484 281 565 5 11 26
56 46 100 98 216 232 550 326 810 93 258 200 590 253 790 7 28 21 77 30 110 9
33 18 67 20 75 2 8 19 80 39 160 19 80 37 156 39 170 3 14 10 43 15 65 6 22
13 54 16 70 2 17 16 89 30 161 21 111 50 284 72 439 4 22 8 49 10 60 2 11 7
56 10 100 3 44 8 82 9 85 2 3 7 46 10 95 4 50 9 101 11 115 10 79 19 339 19
570 0 341 -13 579 -45 810 -5 36 -12 85 -15 110 -8 64 -54 327 -67 377 -9 39
-12 41 -51 46 -44 5 -523 7 -529 2z"/>
<path d="M9007 17174 c-1 -1 -49 -4 -106 -8 -90 -6 -198 -18 -366 -42 -33 -4
-305 -57 -355 -69 -104 -24 -204 -49 -240 -60 -25 -7 -81 -23 -125 -35 -172
-48 -616 -197 -702 -236 -17 -8 -34 -14 -38 -14 -4 0 -21 -7 -38 -15 -18 -7
-77 -32 -132 -54 -88 -34 -206 -84 -300 -126 -103 -46 -149 -67 -220 -100
-117 -54 -486 -237 -590 -293 -182 -97 -397 -215 -425 -232 -8 -5 -96 -56
-195 -114 -99 -57 -209 -122 -245 -145 -36 -22 -83 -50 -105 -62 -22 -12 -42
-24 -45 -28 -3 -3 -34 -24 -70 -45 -199 -121 -735 -478 -1020 -681 -107 -76
-210 -149 -228 -161 -63 -43 -657 -492 -679 -513 -12 -12 -25 -21 -28 -21 -2
0 -49 -35 -102 -78 -54 -43 -163 -130 -243 -194 -80 -63 -192 -154 -250 -202
-58 -48 -112 -92 -120 -99 -130 -102 -867 -735 -951 -817 -9 -8 -34 -30 -55
-49 -46 -41 -211 -189 -234 -211 -14 -13 -140 -127 -229 -208 -50 -45 -277
-258 -356 -333 -44 -42 -111 -106 -148 -141 l-68 -64 107 -99 c58 -55 123
-116 144 -135 66 -63 263 -244 315 -290 27 -24 77 -69 110 -100 33 -30 96 -87
139 -125 44 -39 84 -74 90 -80 12 -11 162 -143 215 -190 18 -16 39 -35 45 -40
14 -13 232 -202 266 -232 202 -172 249 -212 269 -229 13 -10 31 -26 40 -35 13
-12 190 -161 350 -294 13 -11 31 -27 40 -35 9 -9 39 -33 66 -55 28 -22 59 -48
70 -57 11 -9 79 -65 150 -123 72 -59 139 -115 150 -124 29 -24 613 -491 655
-523 57 -44 202 -157 239 -186 317 -249 1150 -868 1458 -1084 34 -23 111 -77
170 -119 242 -170 425 -294 743 -506 184 -122 340 -227 347 -233 7 -5 14 -10
17 -10 3 0 56 -33 118 -73 184 -120 498 -315 733 -456 121 -72 227 -136 235
-141 66 -40 385 -223 450 -258 25 -13 50 -27 55 -32 6 -4 42 -24 80 -45 39
-20 113 -61 165 -90 994 -548 2067 -1019 2975 -1307 245 -77 701 -202 850
-233 11 -2 72 -15 135 -28 63 -14 132 -28 152 -31 21 -3 57 -10 80 -15 24 -6
57 -12 73 -15 34 -6 42 -15 -150 159 -208 187 -589 563 -785 775 -58 62 -110
118 -117 125 -30 31 -263 299 -330 380 -42 50 -85 101 -97 115 -33 39 -215
276 -287 375 -116 159 -359 531 -359 549 0 2 -17 33 -38 67 -47 77 -166 321
-217 441 -31 74 -98 268 -110 318 -55 226 -75 379 -69 538 2 65 6 128 8 142 3
14 7 43 11 65 11 71 75 247 116 324 128 237 357 445 654 593 50 25 115 53 145
63 30 10 60 20 65 24 6 3 15 6 22 7 7 1 27 9 44 18 18 9 36 16 40 16 18 0 314
141 431 206 743 407 1346 1035 1723 1794 79 159 102 211 178 410 44 115 113
343 133 440 2 14 9 39 14 55 8 29 26 110 36 171 2 16 9 52 14 79 9 54 18 115
25 186 3 24 7 58 10 74 24 160 25 642 0 845 -2 19 -7 54 -10 78 -3 23 -8 63
-11 90 -17 140 -116 576 -144 637 -5 11 -13 36 -18 55 -12 46 -107 298 -139
369 -74 164 -150 313 -238 463 -56 97 -217 334 -279 411 -178 223 -398 454
-576 608 -125 107 -305 242 -432 325 -57 36 -115 75 -130 85 -15 10 -30 19
-33 19 -3 0 -22 11 -43 24 -66 41 -269 144 -400 202 -250 111 -600 222 -847
268 -111 21 -198 36 -235 41 -25 3 -61 7 -80 10 -110 14 -236 23 -450 31 -158
6 -330 10 -333 8z"/>
<path d="M18776 17172 c-2 -1 -66 -5 -142 -7 -151 -5 -275 -12 -341 -20 -24
-3 -64 -7 -90 -10 -328 -38 -645 -117 -998 -249 -38 -15 -79 -31 -90 -36 -11
-5 -47 -21 -80 -35 -199 -88 -413 -205 -590 -320 -79 -51 -298 -209 -332 -239
-7 -6 -18 -16 -25 -22 -183 -150 -417 -382 -564 -560 -356 -428 -608 -891
-775 -1424 -33 -105 -95 -344 -103 -402 -3 -21 -10 -58 -16 -83 -14 -61 -23
-123 -36 -240 -2 -27 -7 -60 -9 -72 -24 -111 -23 -664 0 -853 32 -251 72 -467
121 -650 28 -104 80 -274 94 -305 4 -11 18 -47 30 -80 12 -33 31 -79 41 -102
11 -24 19 -45 19 -47 0 -24 175 -371 251 -498 251 -418 531 -744 939 -1092 80
-69 409 -306 424 -306 2 0 41 -23 87 -51 174 -108 465 -247 689 -329 152 -55
252 -106 385 -195 229 -153 376 -314 474 -516 44 -92 61 -139 87 -244 39 -157
38 -420 -1 -610 -10 -44 -18 -87 -20 -95 -6 -28 -66 -231 -77 -258 -17 -44
-25 -65 -42 -109 -39 -105 -190 -411 -273 -553 -102 -175 -468 -711 -513 -750
-3 -3 -21 -25 -40 -50 -45 -59 -317 -387 -350 -422 -14 -15 -45 -50 -70 -78
-25 -28 -56 -64 -70 -79 -286 -313 -652 -680 -925 -926 -177 -160 -183 -166
-155 -160 29 6 72 14 115 21 29 6 255 52 285 59 503 116 934 245 1455 435 250
92 721 283 910 369 33 16 116 53 185 84 69 31 163 74 208 97 45 22 85 40 87
40 7 0 539 266 662 331 54 28 140 74 191 100 51 27 149 81 219 119 69 39 129
70 131 70 3 0 22 10 41 23 20 13 126 75 236 137 176 100 473 273 515 300 8 5
31 19 50 30 19 11 78 47 130 80 52 32 130 80 173 107 43 26 90 55 103 63 27
16 248 158 359 228 112 72 779 516 792 527 6 5 84 60 173 120 89 61 177 121
196 135 18 14 48 35 66 48 281 199 406 289 603 433 225 165 568 421 575 429 3
3 39 30 80 60 41 30 77 57 80 60 3 4 50 41 106 82 56 42 107 83 115 90 8 7 53
42 99 77 310 236 1376 1105 1675 1365 87 76 113 99 145 126 75 62 331 285 450
390 247 219 415 369 494 442 28 25 65 59 81 73 33 30 198 182 250 230 17 17
84 79 149 140 l117 109 -73 69 c-40 38 -109 103 -153 145 -44 42 -112 106
-150 141 -39 36 -104 97 -145 135 -42 39 -120 112 -175 161 -54 50 -106 97
-115 105 -36 33 -120 109 -195 176 -212 188 -286 253 -344 304 -35 30 -74 64
-87 75 -12 11 -46 40 -74 64 -29 25 -58 50 -64 56 -6 5 -54 46 -106 90 -52 44
-97 82 -100 85 -15 17 -445 370 -640 526 -519 416 -953 741 -1444 1082 -228
159 -806 538 -973 638 -18 10 -109 65 -203 122 -94 56 -175 102 -180 102 -6 0
-10 5 -10 10 0 6 -4 10 -9 10 -5 0 -49 23 -98 51 -259 150 -790 427 -1033 538
-91 41 -122 56 -253 115 -32 14 -60 26 -63 26 -3 0 -29 11 -57 24 -29 14 -88
39 -132 56 -44 17 -93 37 -110 45 -55 25 -385 145 -398 145 -7 0 -17 4 -23 8
-5 5 -56 23 -114 41 -58 18 -114 36 -125 41 -33 13 -299 87 -450 124 -177 43
-396 87 -510 100 -22 3 -56 7 -75 10 -155 22 -521 41 -534 28z"/>
<path d="M13868 7016 c-71 -21 -136 -58 -188 -108 -29 -27 -43 -46 -510 -678
-189 -256 -387 -523 -440 -595 -353 -475 -351 -472 -358 -596 -10 -165 76
-302 235 -377 l58 -27 1330 0 1330 0 65 31 c106 50 182 137 214 243 22 74 16
192 -13 258 -17 39 -283 414 -368 518 -5 6 -56 75 -115 155 -58 80 -176 240
-262 355 -86 116 -162 219 -170 230 -20 28 -217 294 -283 383 -83 111 -134
153 -243 200 -75 32 -186 35 -282 8z"/>
</g>
</svg>
